<?xml version="1.0" encoding="UTF-8"?>
<svg id="Ebene_2" data-name="Ebene 2" xmlns="http://www.w3.org/2000/svg" width="11872" height="11872" xmlns:xlink="http://www.w3.org/1999/xlink" viewBox="0 0 11872 11872">
  <defs>
    <style>
      .cls-1 {
        fill: url(#New_Pattern_2);
      }

      .cls-2 {
        fill: none;
      }
    </style>
    <pattern id="New_Pattern_2" data-name="New Pattern 2" x="0" y="0" width="2050" height="2050" patternTransform="translate(7036 7036)" patternUnits="userSpaceOnUse" viewBox="0 0 2050 2050">
      <g>
        <rect class="cls-2" width="2050" height="2050"/>
        <g>
          <path d="m1301.68,2188.43c0,20.24-3.97,39.89-11.8,58.39-7.56,17.87-18.37,33.9-32.14,47.67-13.77,13.77-29.81,24.58-47.67,32.14-18.51,7.83-38.16,11.8-58.39,11.8s-39.89-3.97-58.39-11.8c-17.87-7.56-33.9-18.37-47.67-32.14-13.77-13.77-24.58-29.81-32.14-47.67-7.83-18.51-11.8-38.16-11.8-58.39s3.97-39.89,11.8-58.39c7.56-17.86,18.37-33.9,32.14-47.67,13.77-13.77,29.81-24.58,47.67-32.14,18.51-7.83,38.16-11.8,58.39-11.8s39.89,3.97,58.39,11.8c17.87,7.56,33.9,18.37,47.67,32.14,13.77,13.77,24.58,29.81,32.14,47.67,7.83,18.51,11.8,38.16,11.8,58.39Zm-25.53,0c0-68.74-55.73-124.47-124.47-124.47s-124.47,55.73-124.47,124.47,55.73,124.47,124.47,124.47,124.47-55.73,124.47-124.47Z"/>
          <path d="m300.68,2188.43c0,20.24-3.97,39.89-11.8,58.39-7.56,17.87-18.37,33.9-32.14,47.67-13.77,13.77-29.81,24.58-47.67,32.14-18.51,7.83-38.16,11.8-58.39,11.8s-39.89-3.97-58.39-11.8c-17.87-7.56-33.9-18.37-47.67-32.14-13.77-13.77-24.58-29.81-32.14-47.67-7.83-18.51-11.8-38.16-11.8-58.39s3.97-39.89,11.8-58.39c7.56-17.86,18.37-33.9,32.14-47.67,13.77-13.77,29.81-24.58,47.67-32.14,18.51-7.83,38.16-11.8,58.39-11.8s39.89,3.97,58.39,11.8c17.87,7.56,33.9,18.37,47.67,32.14,13.77,13.77,24.58,29.81,32.14,47.67,7.83,18.51,11.8,38.16,11.8,58.39Zm-25.53,0c0-68.74-55.73-124.47-124.47-124.47s-124.47,55.73-124.47,124.47,55.73,124.47,124.47,124.47,124.47-55.73,124.47-124.47Z"/>
        </g>
        <g>
          <path d="m150.68,1042.05c-8.81,0-16,7.14-16,15.96v160.85c0,8.81,7.19,15.96,16,15.96s16-7.14,16-15.96v-160.85c0-8.81-7.19-15.96-16-15.96Z"/>
          <path d="m200.68,1087.37c-8.81,0-16,7.14-16,15.96v70.21c0,8.81,7.19,15.96,16,15.96s16-7.14,16-15.96v-70.21c0-8.81-7.19-15.96-16-15.96Z"/>
          <path d="m100.68,1189.5c8.81,0,16-7.14,16-15.96v-70.21c0-8.81-7.19-15.96-16-15.96-8.81,0-16,7.14-16,15.96v70.21c0,8.81,7.19,15.96,16,15.96Z"/>
          <circle cx="1151.68" cy="138.43" r="95.74"/>
          <path d="m1301.68,138.43c0,20.24-3.97,39.89-11.8,58.39-7.56,17.87-18.37,33.9-32.14,47.67-13.77,13.77-29.81,24.58-47.67,32.14-18.51,7.83-38.16,11.8-58.39,11.8s-39.89-3.97-58.39-11.8c-17.87-7.56-33.9-18.37-47.67-32.14-13.77-13.77-24.58-29.81-32.14-47.67-7.83-18.51-11.8-38.16-11.8-58.39s3.97-39.89,11.8-58.39c7.56-17.86,18.37-33.9,32.14-47.67,13.77-13.77,29.81-24.58,47.67-32.14,18.51-7.83,38.16-11.8,58.39-11.8s39.89,3.97,58.39,11.8c17.87,7.56,33.9,18.37,47.67,32.14,13.77,13.77,24.58,29.81,32.14,47.67,7.83,18.51,11.8,38.16,11.8,58.39Zm-25.53,0c0-68.74-55.73-124.47-124.47-124.47s-124.47,55.73-124.47,124.47,55.73,124.47,124.47,124.47,124.47-55.73,124.47-124.47Z"/>
          <path d="m1801.68,638.43c0,20.24-3.97,39.89-11.8,58.39-7.56,17.87-18.37,33.9-32.14,47.67-13.77,13.77-29.81,24.58-47.67,32.14-18.51,7.83-38.16,11.8-58.39,11.8s-39.89-3.97-58.39-11.8c-17.87-7.56-33.9-18.37-47.67-32.14-13.77-13.77-24.58-29.81-32.14-47.67-7.83-18.51-11.8-38.16-11.8-58.39s3.97-39.89,11.8-58.39c7.56-17.86,18.37-33.9,32.14-47.67,13.77-13.77,29.81-24.58,47.67-32.14,18.51-7.83,38.16-11.8,58.39-11.8s39.89,3.97,58.39,11.8c17.87,7.56,33.9,18.37,47.67,32.14,13.77,13.77,24.58,29.81,32.14,47.67,7.83,18.51,11.8,38.16,11.8,58.39Zm-25.53,0c0-68.74-55.73-124.47-124.47-124.47s-124.47,55.73-124.47,124.47,55.73,124.47,124.47,124.47,124.47-55.73,124.47-124.47Z"/>
          <circle cx="1689.18" cy="638.43" r="23.94"/>
          <circle cx="1633.33" cy="589.76" r="23.94"/>
          <circle cx="1633.33" cy="687.1" r="23.94"/>
          <circle cx="1151.68" cy="1138.43" r="95.74"/>
          <path d="m1301.68,1138.43c0,20.24-3.97,39.89-11.8,58.39-7.56,17.87-18.37,33.9-32.14,47.67-13.77,13.77-29.81,24.58-47.67,32.14-18.51,7.83-38.16,11.8-58.39,11.8s-39.89-3.97-58.39-11.8c-17.87-7.56-33.9-18.37-47.67-32.14-13.77-13.77-24.58-29.81-32.14-47.67-7.83-18.51-11.8-38.16-11.8-58.39s3.97-39.89,11.8-58.39c7.56-17.86,18.37-33.9,32.14-47.67,13.77-13.77,29.81-24.58,47.67-32.14,18.51-7.83,38.16-11.8,58.39-11.8s39.89,3.97,58.39,11.8c17.87,7.56,33.9,18.37,47.67,32.14,13.77,13.77,24.58,29.81,32.14,47.67,7.83,18.51,11.8,38.16,11.8,58.39Zm-25.53,0c0-68.74-55.73-124.47-124.47-124.47s-124.47,55.73-124.47,124.47,55.73,124.47,124.47,124.47,124.47-55.73,124.47-124.47Z"/>
          <path d="m1801.68,1638.43c0,20.24-3.97,39.89-11.8,58.39-7.56,17.87-18.37,33.9-32.14,47.67-13.77,13.77-29.81,24.58-47.67,32.14-18.51,7.83-38.16,11.8-58.39,11.8s-39.89-3.97-58.39-11.8c-17.87-7.56-33.9-18.37-47.67-32.14-13.77-13.77-24.58-29.81-32.14-47.67-7.83-18.51-11.8-38.16-11.8-58.39s3.97-39.89,11.8-58.39c7.56-17.86,18.37-33.9,32.14-47.67,13.77-13.77,29.81-24.58,47.67-32.14,18.51-7.83,38.16-11.8,58.39-11.8s39.89,3.97,58.39,11.8c17.87,7.56,33.9,18.37,47.67,32.14,13.77,13.77,24.58,29.81,32.14,47.67,7.83,18.51,11.8,38.16,11.8,58.39Zm-25.53,0c0-68.74-55.73-124.47-124.47-124.47s-124.47,55.73-124.47,124.47,55.73,124.47,124.47,124.47,124.47-55.73,124.47-124.47Z"/>
          <circle cx="1689.18" cy="1638.43" r="23.94"/>
          <circle cx="1633.33" cy="1589.76" r="23.94"/>
          <circle cx="1633.33" cy="1687.1" r="23.94"/>
          <path d="m150.68,42.05c-8.81,0-16,7.14-16,15.96v160.85c0,8.81,7.19,15.96,16,15.96s16-7.14,16-15.96V58.01c0-8.81-7.19-15.96-16-15.96Z"/>
          <path d="m200.68,87.37c-8.81,0-16,7.14-16,15.96v70.21c0,8.81,7.19,15.96,16,15.96s16-7.14,16-15.96v-70.21c0-8.81-7.19-15.96-16-15.96Z"/>
          <path d="m300.68,138.43c0,20.24-3.97,39.89-11.8,58.39-7.56,17.87-18.37,33.9-32.14,47.67-13.77,13.77-29.81,24.58-47.67,32.14-18.51,7.83-38.16,11.8-58.39,11.8s-39.89-3.97-58.39-11.8c-17.87-7.56-33.9-18.37-47.67-32.14-13.77-13.77-24.58-29.81-32.14-47.67C4.65,178.32.68,158.67.68,138.43s3.97-39.89,11.8-58.39c7.56-17.86,18.37-33.9,32.14-47.67C58.39,18.6,74.42,7.79,92.29.23c18.51-7.83,38.16-11.8,58.39-11.8S190.57-7.6,209.08.23c17.87,7.56,33.9,18.37,47.67,32.14,13.77,13.77,24.58,29.81,32.14,47.67,7.83,18.51,11.8,38.16,11.8,58.39Zm-25.53,0c0-68.74-55.73-124.47-124.47-124.47S26.22,69.69,26.22,138.43s55.73,124.47,124.47,124.47,124.47-55.73,124.47-124.47Z"/>
          <path d="m746.43,638.43c0,52.88-42.87,95.74-95.74,95.74s-95.74-42.87-95.74-95.74,42.87-95.74,95.74-95.74,95.74,42.87,95.74,95.74Zm-111.74,61.81v-123.62c-27,7.1-47.87,32.12-47.87,61.81s20.87,54.71,47.87,61.81Zm79.87-61.81c0-29.69-20.87-54.71-47.87-61.81v123.62c27-7.1,47.87-32.12,47.87-61.81Z"/>
          <path d="m800.68,638.43c0,20.24-3.97,39.89-11.8,58.39-7.56,17.87-18.37,33.9-32.14,47.67-13.77,13.77-29.81,24.58-47.67,32.14-18.51,7.83-38.16,11.8-58.39,11.8s-39.89-3.97-58.39-11.8c-17.87-7.56-33.9-18.37-47.67-32.14-13.77-13.77-24.58-29.81-32.14-47.67-7.83-18.51-11.8-38.16-11.8-58.39s3.97-39.89,11.8-58.39c7.56-17.86,18.37-33.9,32.14-47.67,13.77-13.77,29.81-24.58,47.67-32.14,18.51-7.83,38.16-11.8,58.39-11.8s39.89,3.97,58.39,11.8c17.87,7.56,33.9,18.37,47.67,32.14,13.77,13.77,24.58,29.81,32.14,47.67,7.83,18.51,11.8,38.16,11.8,58.39Zm-25.53,0c0-68.74-55.73-124.47-124.47-124.47s-124.47,55.73-124.47,124.47,55.73,124.47,124.47,124.47,124.47-55.73,124.47-124.47Z"/>
          <path d="m300.68,1138.43c0,20.24-3.97,39.89-11.8,58.39-7.56,17.87-18.37,33.9-32.14,47.67-13.77,13.77-29.81,24.58-47.67,32.14-18.51,7.83-38.16,11.8-58.39,11.8s-39.89-3.97-58.39-11.8c-17.87-7.56-33.9-18.37-47.67-32.14-13.77-13.77-24.58-29.81-32.14-47.67-7.83-18.51-11.8-38.16-11.8-58.39s3.97-39.89,11.8-58.39c7.56-17.86,18.37-33.9,32.14-47.67,13.77-13.77,29.81-24.58,47.67-32.14,18.51-7.83,38.16-11.8,58.39-11.8s39.89,3.97,58.39,11.8c17.87,7.56,33.9,18.37,47.67,32.14,13.77,13.77,24.58,29.81,32.14,47.67,7.83,18.51,11.8,38.16,11.8,58.39Zm-25.53,0c0-68.74-55.73-124.47-124.47-124.47s-124.47,55.73-124.47,124.47,55.73,124.47,124.47,124.47,124.47-55.73,124.47-124.47Z"/>
          <path d="m746.43,1638.43c0,52.88-42.87,95.74-95.74,95.74s-95.74-42.87-95.74-95.74,42.87-95.74,95.74-95.74,95.74,42.87,95.74,95.74Zm-111.74,61.81v-123.62c-27,7.1-47.87,32.12-47.87,61.81s20.87,54.71,47.87,61.81Zm79.87-61.81c0-29.69-20.87-54.71-47.87-61.81v123.62c27-7.1,47.87-32.12,47.87-61.81Z"/>
          <path d="m800.68,1638.43c0,20.24-3.97,39.89-11.8,58.39-7.56,17.87-18.37,33.9-32.14,47.67-13.77,13.77-29.81,24.58-47.67,32.14-18.51,7.83-38.16,11.8-58.39,11.8s-39.89-3.97-58.39-11.8c-17.87-7.56-33.9-18.37-47.67-32.14-13.77-13.77-24.58-29.81-32.14-47.67-7.83-18.51-11.8-38.16-11.8-58.39s3.97-39.89,11.8-58.39c7.56-17.86,18.37-33.9,32.14-47.67,13.77-13.77,29.81-24.58,47.67-32.14,18.51-7.83,38.16-11.8,58.39-11.8s39.89,3.97,58.39,11.8c17.87,7.56,33.9,18.37,47.67,32.14,13.77,13.77,24.58,29.81,32.14,47.67,7.83,18.51,11.8,38.16,11.8,58.39Zm-25.53,0c0-68.74-55.73-124.47-124.47-124.47s-124.47,55.73-124.47,124.47,55.73,124.47,124.47,124.47,124.47-55.73,124.47-124.47Z"/>
          <path d="m100.68,189.5c8.81,0,16-7.14,16-15.96v-70.21c0-8.81-7.19-15.96-16-15.96-8.81,0-16,7.14-16,15.96v70.21c0,8.81,7.19,15.96,16,15.96Z"/>
        </g>
      </g>
    </pattern>
  </defs>
  <g id="Layer_1" data-name="Layer 1">
    <rect class="cls-1" y="0" width="11872" height="11872"/>
  </g>
</svg>